<mxfile host="app.diagrams.net" agent="Mozilla/5.0 (Macintosh; Intel Mac OS X 10_15_7) AppleWebKit/537.36 (KHTML, like Gecko) Chrome/126.0.0.0 Safari/537.36" version="24.7.6">
  <diagram id="prtHgNgQTEPvFCAcTncT" name="Page-1">
    <mxGraphModel dx="1541" dy="2010" grid="1" gridSize="10" guides="1" tooltips="1" connect="1" arrows="1" fold="1" page="1" pageScale="1" pageWidth="827" pageHeight="1169" math="0" shadow="0">
      <root>
        <mxCell id="0" />
        <mxCell id="1" parent="0" />
        <mxCell id="-1qjawatLghJByEwnPeC-22" value="AddressAPI" style="swimlane;html=1;startSize=20;horizontal=0;rotation=90;labelBackgroundColor=none;fillColor=#A8DADC;strokeColor=#457B9D;fontColor=#1D3557;" vertex="1" parent="1">
          <mxGeometry x="228.75" y="-537.15" width="729.53" height="182.05" as="geometry" />
        </mxCell>
        <mxCell id="-1qjawatLghJByEwnPeC-76" style="edgeStyle=orthogonalEdgeStyle;rounded=0;orthogonalLoop=1;jettySize=auto;html=1;entryX=0.5;entryY=0;entryDx=0;entryDy=0;labelBackgroundColor=none;fontColor=default;strokeColor=#457B9D;" edge="1" parent="-1qjawatLghJByEwnPeC-22" source="-1qjawatLghJByEwnPeC-73" target="-1qjawatLghJByEwnPeC-75">
          <mxGeometry relative="1" as="geometry" />
        </mxCell>
        <mxCell id="-1qjawatLghJByEwnPeC-73" value="&lt;font size=&quot;1&quot;&gt;Validate UAE Address&lt;/font&gt;" style="rounded=0;whiteSpace=wrap;html=1;labelBackgroundColor=none;fillColor=#A8DADC;strokeColor=#457B9D;fontColor=#1D3557;" vertex="1" parent="-1qjawatLghJByEwnPeC-22">
          <mxGeometry x="319" y="194.56" width="80" height="34" as="geometry" />
        </mxCell>
        <mxCell id="-1qjawatLghJByEwnPeC-75" value="&lt;font size=&quot;1&quot;&gt;Save Address&lt;/font&gt;" style="rounded=0;whiteSpace=wrap;html=1;labelBackgroundColor=none;fillColor=#A8DADC;strokeColor=#457B9D;fontColor=#1D3557;" vertex="1" parent="-1qjawatLghJByEwnPeC-22">
          <mxGeometry x="319" y="324.99999999999994" width="80" height="20" as="geometry" />
        </mxCell>
        <mxCell id="-1qjawatLghJByEwnPeC-87" style="edgeStyle=orthogonalEdgeStyle;rounded=0;orthogonalLoop=1;jettySize=auto;html=1;entryX=0.5;entryY=0;entryDx=0;entryDy=0;labelBackgroundColor=none;fontColor=default;strokeColor=#457B9D;" edge="1" parent="-1qjawatLghJByEwnPeC-22" source="-1qjawatLghJByEwnPeC-81" target="-1qjawatLghJByEwnPeC-86">
          <mxGeometry relative="1" as="geometry" />
        </mxCell>
        <mxCell id="-1qjawatLghJByEwnPeC-81" value="&lt;font size=&quot;1&quot;&gt;Get Address&lt;/font&gt;" style="rounded=0;whiteSpace=wrap;html=1;labelBackgroundColor=none;fillColor=#A8DADC;strokeColor=#457B9D;fontColor=#1D3557;" vertex="1" parent="-1qjawatLghJByEwnPeC-22">
          <mxGeometry x="321" y="-134.0000000000001" width="80" height="20" as="geometry" />
        </mxCell>
        <mxCell id="-1qjawatLghJByEwnPeC-86" value="&lt;font size=&quot;1&quot;&gt;Validate User and Return Address&lt;/font&gt;" style="rounded=0;whiteSpace=wrap;html=1;labelBackgroundColor=none;fillColor=#A8DADC;strokeColor=#457B9D;fontColor=#1D3557;" vertex="1" parent="-1qjawatLghJByEwnPeC-22">
          <mxGeometry x="321" y="-67.44" width="80" height="58.44" as="geometry" />
        </mxCell>
        <mxCell id="-1qjawatLghJByEwnPeC-21" value="AddressMP" style="swimlane;html=1;startSize=20;horizontal=0;rotation=90;labelBackgroundColor=none;fillColor=#A8DADC;strokeColor=#457B9D;fontColor=#1D3557;" vertex="1" parent="1">
          <mxGeometry x="13.16" y="-570.2" width="729.06" height="247.96" as="geometry" />
        </mxCell>
        <mxCell id="-1qjawatLghJByEwnPeC-41" value="&lt;font size=&quot;1&quot;&gt;Address Page&lt;/font&gt;" style="rounded=0;whiteSpace=wrap;html=1;labelBackgroundColor=none;fillColor=#A8DADC;strokeColor=#457B9D;fontColor=#1D3557;" vertex="1" parent="-1qjawatLghJByEwnPeC-21">
          <mxGeometry x="319.5" y="-101.25" width="80" height="20" as="geometry" />
        </mxCell>
        <mxCell id="-1qjawatLghJByEwnPeC-44" value="&lt;font size=&quot;1&quot;&gt;Create New address and Select GPS from Map Widget&lt;/font&gt;" style="rounded=0;whiteSpace=wrap;html=1;labelBackgroundColor=none;fillColor=#A8DADC;strokeColor=#457B9D;fontColor=#1D3557;" vertex="1" parent="-1qjawatLghJByEwnPeC-21">
          <mxGeometry x="368.5" y="209.5" width="80" height="69.5" as="geometry" />
        </mxCell>
        <mxCell id="-1qjawatLghJByEwnPeC-46" value="&lt;font size=&quot;1&quot;&gt;Select Data&lt;/font&gt;" style="rounded=0;whiteSpace=wrap;html=1;labelBackgroundColor=none;fillColor=#A8DADC;strokeColor=#457B9D;fontColor=#1D3557;" vertex="1" parent="-1qjawatLghJByEwnPeC-21">
          <mxGeometry x="268.5" y="211.5" width="80" height="20" as="geometry" />
        </mxCell>
        <mxCell id="-1qjawatLghJByEwnPeC-63" style="edgeStyle=orthogonalEdgeStyle;rounded=0;orthogonalLoop=1;jettySize=auto;html=1;exitX=1;exitY=0.5;exitDx=0;exitDy=0;entryX=0.5;entryY=0;entryDx=0;entryDy=0;labelBackgroundColor=none;fontColor=default;strokeColor=#457B9D;" edge="1" parent="-1qjawatLghJByEwnPeC-21" source="-1qjawatLghJByEwnPeC-49" target="-1qjawatLghJByEwnPeC-44">
          <mxGeometry relative="1" as="geometry">
            <mxPoint x="408.5" y="87.5" as="targetPoint" />
          </mxGeometry>
        </mxCell>
        <mxCell id="-1qjawatLghJByEwnPeC-88" style="edgeStyle=orthogonalEdgeStyle;rounded=0;orthogonalLoop=1;jettySize=auto;html=1;labelBackgroundColor=none;fontColor=default;strokeColor=#457B9D;" edge="1" parent="-1qjawatLghJByEwnPeC-21" source="-1qjawatLghJByEwnPeC-49">
          <mxGeometry relative="1" as="geometry">
            <mxPoint x="307.5" y="209.53999999999996" as="targetPoint" />
          </mxGeometry>
        </mxCell>
        <mxCell id="-1qjawatLghJByEwnPeC-49" value="&lt;font style=&quot;font-size: 9px;&quot;&gt;Address Data&amp;nbsp;&lt;/font&gt;" style="rhombus;whiteSpace=wrap;html=1;labelBackgroundColor=none;fillColor=#A8DADC;strokeColor=#457B9D;fontColor=#1D3557;" vertex="1" parent="-1qjawatLghJByEwnPeC-21">
          <mxGeometry x="330.75" y="28.5" width="57.5" height="57.5" as="geometry" />
        </mxCell>
        <mxCell id="-1qjawatLghJByEwnPeC-70" value="Has Data" style="text;html=1;align=center;verticalAlign=middle;resizable=0;points=[];autosize=1;strokeColor=none;fillColor=none;labelBackgroundColor=none;fontColor=#1D3557;" vertex="1" parent="-1qjawatLghJByEwnPeC-21">
          <mxGeometry x="241.5" y="119.53999999999996" width="70" height="30" as="geometry" />
        </mxCell>
        <mxCell id="-1qjawatLghJByEwnPeC-71" value="No Data" style="text;html=1;align=center;verticalAlign=middle;resizable=0;points=[];autosize=1;strokeColor=none;fillColor=none;labelBackgroundColor=none;fontColor=#1D3557;" vertex="1" parent="-1qjawatLghJByEwnPeC-21">
          <mxGeometry x="401.5" y="119.54000000000002" width="70" height="30" as="geometry" />
        </mxCell>
        <mxCell id="-1qjawatLghJByEwnPeC-42" style="edgeStyle=orthogonalEdgeStyle;rounded=0;orthogonalLoop=1;jettySize=auto;html=1;entryX=0;entryY=0.5;entryDx=0;entryDy=0;labelBackgroundColor=none;fontColor=default;strokeColor=#457B9D;" edge="1" parent="1" source="-1qjawatLghJByEwnPeC-26" target="-1qjawatLghJByEwnPeC-41">
          <mxGeometry relative="1" as="geometry" />
        </mxCell>
        <mxCell id="-1qjawatLghJByEwnPeC-20" value="EventMP" style="swimlane;html=1;startSize=20;horizontal=0;rotation=90;labelBackgroundColor=none;fillColor=#A8DADC;strokeColor=#457B9D;fontColor=#1D3557;" vertex="1" parent="1">
          <mxGeometry x="-200" y="-536.52" width="728.25" height="180" as="geometry" />
        </mxCell>
        <mxCell id="-1qjawatLghJByEwnPeC-96" value="" style="edgeStyle=orthogonalEdgeStyle;rounded=0;orthogonalLoop=1;jettySize=auto;html=1;entryX=0.5;entryY=0;entryDx=0;entryDy=0;labelBackgroundColor=none;fontColor=default;strokeColor=#457B9D;" edge="1" parent="-1qjawatLghJByEwnPeC-20" source="-1qjawatLghJByEwnPeC-24" target="-1qjawatLghJByEwnPeC-25">
          <mxGeometry relative="1" as="geometry" />
        </mxCell>
        <mxCell id="-1qjawatLghJByEwnPeC-24" value="&lt;font style=&quot;font-size: 9px;&quot;&gt;User&lt;/font&gt;" style="rounded=1;whiteSpace=wrap;html=1;labelBackgroundColor=none;fillColor=#A8DADC;strokeColor=#457B9D;fontColor=#1D3557;" vertex="1" parent="-1qjawatLghJByEwnPeC-20">
          <mxGeometry x="334.13" y="-233.5" width="60" height="22.75" as="geometry" />
        </mxCell>
        <mxCell id="-1qjawatLghJByEwnPeC-93" style="edgeStyle=orthogonalEdgeStyle;rounded=0;orthogonalLoop=1;jettySize=auto;html=1;entryX=0.5;entryY=0;entryDx=0;entryDy=0;labelBackgroundColor=none;fontColor=default;strokeColor=#457B9D;" edge="1" parent="-1qjawatLghJByEwnPeC-20" source="-1qjawatLghJByEwnPeC-25" target="-1qjawatLghJByEwnPeC-26">
          <mxGeometry relative="1" as="geometry" />
        </mxCell>
        <mxCell id="-1qjawatLghJByEwnPeC-25" value="&lt;font style=&quot;font-size: 9px;&quot;&gt;Create Event&lt;/font&gt;" style="rounded=0;whiteSpace=wrap;html=1;labelBackgroundColor=none;fillColor=#A8DADC;strokeColor=#457B9D;fontColor=#1D3557;" vertex="1" parent="-1qjawatLghJByEwnPeC-20">
          <mxGeometry x="324" y="-184" width="80" height="20" as="geometry" />
        </mxCell>
        <mxCell id="-1qjawatLghJByEwnPeC-26" value="&lt;font style=&quot;font-size: 9px;&quot;&gt;Select Location&lt;/font&gt;" style="rounded=0;whiteSpace=wrap;html=1;labelBackgroundColor=none;fillColor=#A8DADC;strokeColor=#457B9D;fontColor=#1D3557;" vertex="1" parent="-1qjawatLghJByEwnPeC-20">
          <mxGeometry x="323.88" y="-135.5" width="80" height="20" as="geometry" />
        </mxCell>
        <mxCell id="-1qjawatLghJByEwnPeC-91" value="&lt;font style=&quot;font-size: 9px;&quot;&gt;Return Address Info&amp;nbsp;&lt;/font&gt;" style="rounded=1;whiteSpace=wrap;html=1;labelBackgroundColor=none;fillColor=#A8DADC;strokeColor=#457B9D;fontColor=#1D3557;" vertex="1" parent="-1qjawatLghJByEwnPeC-20">
          <mxGeometry x="333.88" y="171.36" width="60" height="32.64" as="geometry" />
        </mxCell>
        <mxCell id="-1qjawatLghJByEwnPeC-82" style="edgeStyle=orthogonalEdgeStyle;rounded=0;orthogonalLoop=1;jettySize=auto;html=1;entryX=0;entryY=0.5;entryDx=0;entryDy=0;labelBackgroundColor=none;fontColor=default;strokeColor=#457B9D;" edge="1" parent="1" source="-1qjawatLghJByEwnPeC-41" target="-1qjawatLghJByEwnPeC-81">
          <mxGeometry relative="1" as="geometry" />
        </mxCell>
        <mxCell id="-1qjawatLghJByEwnPeC-89" style="edgeStyle=orthogonalEdgeStyle;rounded=0;orthogonalLoop=1;jettySize=auto;html=1;entryX=0.5;entryY=0;entryDx=0;entryDy=0;labelBackgroundColor=none;fontColor=default;strokeColor=#457B9D;" edge="1" parent="1" source="-1qjawatLghJByEwnPeC-86" target="-1qjawatLghJByEwnPeC-49">
          <mxGeometry relative="1" as="geometry" />
        </mxCell>
        <mxCell id="-1qjawatLghJByEwnPeC-90" style="edgeStyle=orthogonalEdgeStyle;rounded=0;orthogonalLoop=1;jettySize=auto;html=1;entryX=0;entryY=0.5;entryDx=0;entryDy=0;labelBackgroundColor=none;fontColor=default;strokeColor=#457B9D;" edge="1" parent="1" source="-1qjawatLghJByEwnPeC-44" target="-1qjawatLghJByEwnPeC-73">
          <mxGeometry relative="1" as="geometry" />
        </mxCell>
        <mxCell id="-1qjawatLghJByEwnPeC-92" style="edgeStyle=orthogonalEdgeStyle;rounded=0;orthogonalLoop=1;jettySize=auto;html=1;entryX=1;entryY=0.5;entryDx=0;entryDy=0;labelBackgroundColor=none;fontColor=default;strokeColor=#457B9D;" edge="1" parent="1" source="-1qjawatLghJByEwnPeC-46" target="-1qjawatLghJByEwnPeC-91">
          <mxGeometry relative="1" as="geometry" />
        </mxCell>
        <mxCell id="-1qjawatLghJByEwnPeC-94" style="edgeStyle=orthogonalEdgeStyle;rounded=0;orthogonalLoop=1;jettySize=auto;html=1;entryX=0.5;entryY=1;entryDx=0;entryDy=0;labelBackgroundColor=none;fontColor=default;strokeColor=#457B9D;" edge="1" parent="1" source="-1qjawatLghJByEwnPeC-75" target="-1qjawatLghJByEwnPeC-46">
          <mxGeometry relative="1" as="geometry" />
        </mxCell>
      </root>
    </mxGraphModel>
  </diagram>
</mxfile>
